# xmcd
#
# Track frame offsets:
#	150
#	14318
#	28742
#	41000
#	54727
#	68336
#	81432
#	95770
#	108163
#	122709
#	135899
#	149694
#	163162
#	176094
#	188603
#	201802
#	215055
#	229455
#	242136
#	255286
#
# Disc length: 3566 seconds
#
# Revision: 1
# Processed by: cddbd v1.4PL0 Copyright (c) Steve Scherf et al.
# Submitted via: audiograbber 1.80
#
DISCID=200dec14
DTITLE="big boy" crudup - blues legends
DYEAR=1900
DGENRE=
TTITLE0=cry your blues away
TTITLE1=crudup's vicksburg blues
TTITLE2=gonna be some changes made
TTITLE3=katie may
TTITLE4=hoodoo lady blues
TTITLE5=hey, mama everything's all right
TTITLE6=lonesome world to me
TTITLE7=roberta blues
TTITLE8=just like a spider
TTITLE9=some day
TTITLE10=that's why i'm lonesome 
TTITLE11=she's gone
TTITLE12=that's all right
TTITLE13=so glad you're mine
TTITLE14=you got to reap
TTITLE15=i want my lovin'
TTITLE16=chicago blues
TTITLE17=i don't know it
TTITLE18=crudup's after hours
TTITLE19=train fare blues
EXTD=
EXTT0=
EXTT1=
EXTT2=
EXTT3=
EXTT4=
EXTT5=
EXTT6=
EXTT7=
EXTT8=
EXTT9=
EXTT10=
EXTT11=
EXTT12=
EXTT13=
EXTT14=
EXTT15=
EXTT16=
EXTT17=
EXTT18=
EXTT19=
PLAYORDER=
